<svg width="24" height="24" viewBox="0 0 24 24" fill="none" xmlns="http://www.w3.org/2000/svg">
<path d="M18.7126 11.526H5.73518C3.6724 11.526 2.00024 13.1998 2.00024 15.2622V18.2642C2.00024 20.3266 3.6724 22 5.73518 22H18.7126C20.775 22 22.4476 20.3266 22.4476 18.2642V15.2622C22.4476 13.1998 20.775 11.526 18.7126 11.526ZM8.46166 13.8631H7.25517V19.858H6.08954V13.8631H4.88389V12.8434H8.46166V13.8631ZM11.8698 19.858H10.8359V19.291C10.6437 19.5007 10.4457 19.6608 10.2389 19.7688C10.0321 19.8814 9.8324 19.9339 9.63813 19.9339C9.398 19.9339 9.21957 19.8576 9.09742 19.7025C8.97736 19.5478 8.91607 19.3186 8.91607 19.0088V14.6827H9.94997V18.6528C9.94997 18.7753 9.9729 18.8633 10.0142 18.9179C10.0588 18.9742 10.1296 19.0001 10.2268 19.0001C10.3018 19.0001 10.3985 18.9642 10.5149 18.8917C10.632 18.8183 10.7387 18.7266 10.8359 18.6132V14.6823H11.8698V19.858ZM15.6235 18.7895C15.6235 19.1551 15.5422 19.4361 15.38 19.6321C15.2187 19.828 14.9827 19.9243 14.6771 19.9243C14.4737 19.9243 14.2927 19.8876 14.1356 19.8117C13.9776 19.7367 13.8287 19.6212 13.6932 19.4611V19.8576H12.6468V12.8434H13.6932V15.1025C13.8333 14.9462 13.9813 14.8249 14.136 14.7436C14.294 14.6606 14.4528 14.6206 14.6137 14.6206C14.941 14.6206 15.1903 14.7298 15.3629 14.9504C15.5363 15.1709 15.6226 15.494 15.6226 15.9175V18.7895H15.6235ZM19.21 17.395H17.2314V18.3701C17.2314 18.6419 17.2648 18.8312 17.3323 18.9367C17.4015 19.0426 17.5178 19.0943 17.6833 19.0943C17.8551 19.0943 17.9739 19.0497 18.0431 18.9604C18.1098 18.8704 18.1457 18.6745 18.1457 18.3701V18.1346H19.21V18.4001C19.21 18.9304 19.0812 19.3302 18.8198 19.6C18.5625 19.8672 18.1748 19.9998 17.6596 19.9998C17.1956 19.9998 16.8299 19.8584 16.5644 19.5741C16.2997 19.2915 16.1646 18.8992 16.1646 18.4006V16.076C16.1646 15.6286 16.3122 15.2605 16.6052 14.9783C16.8975 14.6961 17.2739 14.5551 17.7371 14.5551C18.2111 14.5551 18.5751 14.6856 18.8289 14.9474C19.0828 15.2097 19.21 15.5849 19.21 16.0755V17.395Z" fill="#F68634"/>
<path d="M17.6933 15.4598C17.5282 15.4598 17.4107 15.5061 17.339 15.6028C17.2656 15.6937 17.2314 15.8492 17.2314 16.0664V16.5896H18.1457V16.0664C18.1457 15.8492 18.109 15.6933 18.0364 15.6028C17.9668 15.5065 17.8505 15.4598 17.6933 15.4598Z" fill="#F68634"/>
<path d="M14.1259 15.4424C14.0525 15.4424 13.9783 15.4586 13.907 15.4924C13.8345 15.5253 13.7636 15.58 13.6935 15.6508V18.8747C13.7765 18.958 13.8586 19.0222 13.9387 19.0589C14.0183 19.0944 14.1008 19.1144 14.1888 19.1144C14.316 19.1144 14.4085 19.0777 14.4681 19.0035C14.5269 18.9301 14.5569 18.813 14.5569 18.6475V15.9748C14.5569 15.7988 14.5219 15.6671 14.4485 15.5766C14.3727 15.4874 14.2651 15.4424 14.1259 15.4424Z" fill="#F68634"/>
<path d="M7.43431 9.72835H8.74502V6.52245L10.2713 2H8.93887L8.1276 5.08917H8.04506L7.19335 2H5.87305L7.43431 6.66669V9.72835Z" fill="#F68634"/>
<path d="M12.0476 9.87221C12.5771 9.87221 12.9923 9.73338 13.295 9.45573C13.5955 9.17683 13.746 8.79621 13.746 8.30844V5.36351C13.746 4.92953 13.5922 4.57225 13.2858 4.29669C12.9773 4.02195 12.5821 3.88354 12.1001 3.88354C11.5707 3.88354 11.1492 4.01445 10.8357 4.27584C10.523 4.53723 10.3659 4.88784 10.3659 5.331V8.28593C10.3659 8.77078 10.5189 9.15432 10.8245 9.44197C11.13 9.72838 11.5386 9.87221 12.0476 9.87221ZM11.5649 5.28764C11.5649 5.16382 11.6095 5.06377 11.6966 4.98539C11.7871 4.90868 11.9017 4.87158 12.0443 4.87158C12.1981 4.87158 12.3228 4.90868 12.4178 4.98539C12.5125 5.06377 12.5596 5.16382 12.5596 5.28764V8.3939C12.5596 8.54607 12.5133 8.66697 12.4195 8.7541C12.3265 8.84165 12.2015 8.88459 12.0443 8.88459C11.8905 8.88459 11.7716 8.8429 11.6883 8.75535C11.6061 8.66989 11.5644 8.54982 11.5644 8.39349V5.28764H11.5649Z" fill="#F68634"/>
<path d="M15.504 9.81168C15.7229 9.81168 15.9476 9.74914 16.1789 9.62908C16.4128 9.50734 16.6367 9.32933 16.8497 9.09712V9.72871H18.0141V4.02771H16.8497V8.35505C16.7413 8.47887 16.6208 8.58059 16.4916 8.66147C16.3599 8.74151 16.2515 8.78154 16.166 8.78154C16.0568 8.78154 15.9763 8.75152 15.9292 8.6894C15.8813 8.62979 15.8542 8.53223 15.8542 8.39841V4.02771H14.6915V8.79237C14.6915 9.13214 14.7598 9.38603 14.8949 9.55445C15.0325 9.72538 15.2334 9.81168 15.504 9.81168Z" fill="#F68634"/>
</svg>
